<?xml version="1.0" encoding="UTF-8"?>
<svg xmlns="http://www.w3.org/2000/svg" style="stroke-dasharray:none; shape-rendering:auto; font-family:'Arial'; text-rendering:auto; fill-opacity:1; color-interpolation:auto; color-rendering:auto; font-size:12; fill:black; stroke:black; image-rendering:auto; stroke-miterlimit:10; stroke-linecap:square; stroke-linejoin:miter; font-style:normal; stroke-width:1; stroke-dashoffset:0; font-weight:normal; stroke-opacity:1;" contentScriptType="text/ecmascript" preserveAspectRatio="xMidYMid meet" zoomAndPan="magnify" version="1.0" contentStyleType="text/css" xml:xlink="http://www.w3.org/1999/xlink" width="971" height="581"><rect x="10" y="10" width="961" height="571" ry="0" rx="0" style="stroke:#000000; fill:#FFFFFF" /><rect x="40" y="10" width="931" height="571" ry="0" rx="0" style="stroke:#000000; fill:#008080" /><g componentSequence="2"><text x="-295" y="47" transform="rotate(270)" text-anchor="middle" style="font-weight:bold;font-size:10px;stroke:none; fill:#434343" /></g><g componentSequence="1"><text x="-295" y="17" transform="rotate(270)" text-anchor="middle" style="font-weight:bold;font-size:10px;stroke:none; fill:#434343"><tspan dy="14" x="-295">Abertura de Chamados</tspan></text></g><g sequence="4"><ellipse cx="107" cy="257" rx="17" ry="17" stroke-width="1" style="fill:url(#linearGradient66FF6696FF96B6FFB6_1595061237);" stroke="336633" /></g><g sequence="9"><rect x="400" y="37" width="106" height="70" ry="5" rx="5" style="fill:url(#linearGradientF8FBFEEDF5FCDEEDFAD4E7F8E2E5E9_1372931687);" stroke="191970" /></g><g componentSequence="9"><text x="453" y="52" text-anchor="middle" style="font-weight:bold;font-size:10px;stroke:none; fill:#333399"><tspan dy="14" x="453">E-Mail</tspan><tspan dy="14" x="453">Corporativo</tspan></text></g><g sequence="11"><rect x="400" y="134" width="106" height="70" ry="5" rx="5" style="fill:url(#linearGradientF8FBFEEDF5FCDEEDFAD4E7F8E2E5E9_1441454213);" stroke="191970" /></g><g componentSequence="11"><text x="453" y="149" text-anchor="middle" style="font-weight:bold;font-size:10px;stroke:none; fill:#333399"><tspan dy="14" x="453">Criação COD no</tspan><tspan dy="14" x="453">CRM</tspan></text></g><g sequence="13"><rect x="400" y="231" width="106" height="70" ry="5" rx="5" style="fill:url(#linearGradientF8FBFEEDF5FCDEEDFAD4E7F8E2E5E9_283659356);" stroke="191970" /></g><g componentSequence="13"><text x="453" y="255" text-anchor="middle" style="font-weight:bold;font-size:10px;stroke:none; fill:#333399"><tspan dy="14" x="453">Portal do Cliente</tspan></text></g><g sequence="15"><rect x="600" y="130" width="106" height="70" ry="5" rx="5" style="fill:url(#linearGradientF8FBFEEDF5FCDEEDFAD4E7F8E2E5E9_1521469615);" stroke="191970" /></g><g componentSequence="15"><text x="653" y="145" text-anchor="middle" style="font-weight:bold;font-size:10px;stroke:none; fill:#333399"><tspan dy="14" x="653">Usuário CRM e</tspan><tspan dy="14" x="653">EST. Vendas</tspan></text></g><g sequence="21"><ellipse cx="897" cy="257" rx="17" ry="17" stroke-width="3" style="fill:url(#linearGradientFF6666FF9696FFB6B6_556948451);" stroke="993333" /></g><g sequence="23"><rect x="400" y="340" width="106" height="70" ry="5" rx="5" style="fill:url(#linearGradientF8FBFEEDF5FCDEEDFAD4E7F8E2E5E9_580878768);" stroke="191970" /></g><g componentSequence="23"><text x="453" y="355" text-anchor="middle" style="font-weight:bold;font-size:10px;stroke:none; fill:#333399"><tspan dy="14" x="453">Cadastro de</tspan><tspan dy="14" x="453">Fornecedor</tspan></text></g><g sequence="26"><polygon points=" 230 250 260 220 290 250 260 280 230 250" style="fill:url(#linearGradientFAFBFCFFFFCC_1892135699);" stroke="000000" /></g><path style="fill:none; stroke-width:6; stroke:#000000;" d="M250.0 250.0 L270.0 250.0" /><path style="fill:none; stroke-width:6; stroke:#000000;" d="M260.0 240.0 L260.0 260.0" /><g componentSequence="26"><text x="260" y="283" text-anchor="middle" style="font-weight:bold;font-size:10px;stroke:none; fill:#333399"><tspan dy="14" x="260">Paralelo</tspan></text></g><g sequence="27"><polygon points=" 730 250 760 220 790 250 760 280 730 250" style="fill:url(#linearGradientFAFBFCFFFFCC_1409935124);" stroke="000000" /></g><path style="fill:none; stroke-width:6; stroke:#000000;" d="M750.0 250.0 L770.0 250.0" /><path style="fill:none; stroke-width:6; stroke:#000000;" d="M760.0 240.0 L760.0 260.0" /><g componentSequence="27"><text x="760" y="283" text-anchor="middle" style="font-weight:bold;font-size:10px;stroke:none; fill:#333399"><tspan dy="14" x="760">Join</tspan></text></g><g componentSequence="28"><text x="845" y="260" style="font-size:10px;font-weight:none;stroke:none; fill:#333399" text-anchor="left" /></g><g componentSequence="29"><text x="270" y="76" style="font-size:10px;font-weight:none;stroke:none; fill:#333399" text-anchor="left" /></g><g componentSequence="30"><text x="315" y="169" style="font-size:10px;font-weight:none;stroke:none; fill:#333399" text-anchor="left" /></g><g componentSequence="31"><text x="355" y="265" style="font-size:10px;font-weight:none;stroke:none; fill:#333399" text-anchor="left" /></g><g componentSequence="33"><text x="307" y="373" style="font-size:10px;font-weight:none;stroke:none; fill:#333399" text-anchor="left" /></g><g componentSequence="34"><text x="187" y="260" style="font-size:10px;font-weight:none;stroke:none; fill:#333399" text-anchor="left" /></g><g componentSequence="35"><text x="676" y="375" style="font-size:10px;font-weight:none;stroke:none; fill:#333399" text-anchor="left" /></g><g componentSequence="39"><text x="716" y="72" style="font-size:10px;font-weight:none;stroke:none; fill:#333399" text-anchor="left" /></g><g componentSequence="40"><text x="628" y="265" style="font-size:10px;font-weight:none;stroke:none; fill:#333399" text-anchor="left" /></g><g componentSequence="41"><text x="563" y="171" style="font-size:10px;font-weight:none;stroke:none; fill:#333399" text-anchor="left" /></g><g componentSequence="42"><text x="767" y="169" style="font-size:10px;font-weight:none;stroke:none; fill:#333399" text-anchor="left" /></g><path style="fill:none; stroke:#000000;stroke-width:1" d="M124.0 257.0 L229.0 262.0" /><polygon style="fill:#000000; stroke:#000000;" points=" 219 257 229 262 219 267 221 262" /><path style="fill:none; stroke:#000000;stroke-width:1" d="M506.0 72.0 L670.0 72.0 L759.0 72.0 L759.0 219.0" /><polygon style="fill:#000000; stroke:#000000;" points=" 764 209 759 219 754 209 759 211" /><path style="fill:none; stroke:#000000;stroke-width:1" d="M260.0 219.0 L260.0 72.0 L399.0 72.0" /><polygon style="fill:#000000; stroke:#000000;" points=" 389 67 399 72 389 77 391 72" /><path style="fill:none; stroke:#000000;stroke-width:1" d="M506.0 173.0 L506.0 173.0 L599.0 168.0" /><polygon style="fill:#000000; stroke:#000000;" points=" 589 164 599 168 589 174 591 168" /><path style="fill:none; stroke:#000000;stroke-width:1" d="M260.0 219.0 L260.0 169.0 L399.0 169.0" /><polygon style="fill:#000000; stroke:#000000;" points=" 389 164 399 169 389 174 391 169" /><path style="fill:none; stroke:#000000;stroke-width:1" d="M506.0 265.0 L729.0 264.0" /><polygon style="fill:#000000; stroke:#000000;" points=" 719 259 729 264 719 269 721 264" /><path style="fill:none; stroke:#000000;stroke-width:1" d="M290.0 264.0 L399.0 265.0" /><polygon style="fill:#000000; stroke:#000000;" points=" 389 260 399 265 389 270 391 265" /><path style="fill:none; stroke:#000000;stroke-width:1" d="M706.0 167.0 L759.0 169.0 L759.0 219.0" /><polygon style="fill:#000000; stroke:#000000;" points=" 764 209 759 219 754 209 759 211" /><path style="fill:none; stroke:#000000;stroke-width:1" d="M790.0 262.0 L880.0 257.0" /><polygon style="fill:#000000; stroke:#000000;" points=" 870 253 880 257 870 263 872 257" /><path style="fill:none; stroke:#000000;stroke-width:1" d="M506.0 375.0 L759.0 375.0 L759.0 308.0" /><polygon style="fill:#000000; stroke:#000000;" points=" 754 318 759 308 764 318 759 316" /><path style="fill:none; stroke:#000000;stroke-width:1" d="M260.0 308.0 L260.0 373.0 L399.0 374.0" /><polygon style="fill:#000000; stroke:#000000;" points=" 389 369 399 374 389 379 391 374" /><defs><linearGradient xmlns:xlink="http://www.w3.org/1999/xlink" xlink:href="#linearGradient66FF6696FF96B6FFB6" id="linearGradient66FF6696FF96B6FFB6_1595061237" x1="0" y1="240.0" x2="0" y2="275.0" gradientUnits="userSpaceOnUse" xlink:type="simple" xlink:actuate="onLoad" xlink:show="other" /><linearGradient id="linearGradient66FF6696FF96B6FFB6"><stop style="stop-color:#66FF66;stop-opacity:1;" offset="0.0" id="stop66FF66" /><stop style="stop-color:#96FF96;stop-opacity:1;" offset="0.5" id="stop96FF96" /><stop style="stop-color:#B6FFB6;stop-opacity:1;" offset="1.0" id="stopB6FFB6" /></linearGradient><linearGradient xmlns:xlink="http://www.w3.org/1999/xlink" xlink:href="#linearGradientF8FBFEEDF5FCDEEDFAD4E7F8E2E5E9" id="linearGradientF8FBFEEDF5FCDEEDFAD4E7F8E2E5E9_1372931687" x1="0" y1="37.0" x2="0" y2="143.0" gradientUnits="userSpaceOnUse" xlink:type="simple" xlink:actuate="onLoad" xlink:show="other" /><linearGradient id="linearGradientF8FBFEEDF5FCDEEDFAD4E7F8E2E5E9"><stop style="stop-color:#F8FBFE;stop-opacity:1;" offset="0.0" id="stopF8FBFE" /><stop style="stop-color:#EDF5FC;stop-opacity:1;" offset="0.25" id="stopEDF5FC" /><stop style="stop-color:#DEEDFA;stop-opacity:1;" offset="0.5" id="stopDEEDFA" /><stop style="stop-color:#D4E7F8;stop-opacity:1;" offset="0.75" id="stopD4E7F8" /><stop style="stop-color:#E2E5E9;stop-opacity:1;" offset="1.0" id="stopE2E5E9" /></linearGradient><linearGradient xmlns:xlink="http://www.w3.org/1999/xlink" xlink:href="#linearGradientF8FBFEEDF5FCDEEDFAD4E7F8E2E5E9" id="linearGradientF8FBFEEDF5FCDEEDFAD4E7F8E2E5E9_1441454213" x1="0" y1="134.0" x2="0" y2="240.0" gradientUnits="userSpaceOnUse" xlink:type="simple" xlink:actuate="onLoad" xlink:show="other" /><linearGradient xmlns:xlink="http://www.w3.org/1999/xlink" xlink:href="#linearGradientF8FBFEEDF5FCDEEDFAD4E7F8E2E5E9" id="linearGradientF8FBFEEDF5FCDEEDFAD4E7F8E2E5E9_283659356" x1="0" y1="231.0" x2="0" y2="337.0" gradientUnits="userSpaceOnUse" xlink:type="simple" xlink:actuate="onLoad" xlink:show="other" /><linearGradient xmlns:xlink="http://www.w3.org/1999/xlink" xlink:href="#linearGradientF8FBFEEDF5FCDEEDFAD4E7F8E2E5E9" id="linearGradientF8FBFEEDF5FCDEEDFAD4E7F8E2E5E9_1521469615" x1="0" y1="130.0" x2="0" y2="236.0" gradientUnits="userSpaceOnUse" xlink:type="simple" xlink:actuate="onLoad" xlink:show="other" /><linearGradient xmlns:xlink="http://www.w3.org/1999/xlink" xlink:href="#linearGradientFF6666FF9696FFB6B6" id="linearGradientFF6666FF9696FFB6B6_556948451" x1="0" y1="240.0" x2="0" y2="275.0" gradientUnits="userSpaceOnUse" xlink:type="simple" xlink:actuate="onLoad" xlink:show="other" /><linearGradient id="linearGradientFF6666FF9696FFB6B6"><stop style="stop-color:#FF6666;stop-opacity:1;" offset="0.0" id="stopFF6666" /><stop style="stop-color:#FF9696;stop-opacity:1;" offset="0.5" id="stopFF9696" /><stop style="stop-color:#FFB6B6;stop-opacity:1;" offset="1.0" id="stopFFB6B6" /></linearGradient><linearGradient xmlns:xlink="http://www.w3.org/1999/xlink" xlink:href="#linearGradientF8FBFEEDF5FCDEEDFAD4E7F8E2E5E9" id="linearGradientF8FBFEEDF5FCDEEDFAD4E7F8E2E5E9_580878768" x1="0" y1="340.0" x2="0" y2="446.0" gradientUnits="userSpaceOnUse" xlink:type="simple" xlink:actuate="onLoad" xlink:show="other" /><linearGradient xmlns:xlink="http://www.w3.org/1999/xlink" xlink:href="#linearGradientFAFBFCFFFFCC" id="linearGradientFAFBFCFFFFCC_1892135699" x1="0" y1="220.0" x2="0" y2="280.0" gradientUnits="userSpaceOnUse" xlink:type="simple" xlink:actuate="onLoad" xlink:show="other" /><linearGradient id="linearGradientFAFBFCFFFFCC"><stop style="stop-color:#FAFBFC;stop-opacity:1;" offset="0.0" id="stopFAFBFC" /><stop style="stop-color:#FFFFCC;stop-opacity:1;" offset="1.0" id="stopFFFFCC" /></linearGradient><linearGradient xmlns:xlink="http://www.w3.org/1999/xlink" xlink:href="#linearGradientFAFBFCFFFFCC" id="linearGradientFAFBFCFFFFCC_1409935124" x1="0" y1="220.0" x2="0" y2="280.0" gradientUnits="userSpaceOnUse" xlink:type="simple" xlink:actuate="onLoad" xlink:show="other" /></defs></svg>
