<?xml version="1.0" encoding="UTF-8"?>
<svg xmlns="http://www.w3.org/2000/svg" style="stroke-dasharray:none; shape-rendering:auto; font-family:'Arial'; text-rendering:auto; fill-opacity:1; color-interpolation:auto; color-rendering:auto; font-size:12; fill:black; stroke:black; image-rendering:auto; stroke-miterlimit:10; stroke-linecap:square; stroke-linejoin:miter; font-style:normal; stroke-width:1; stroke-dashoffset:0; font-weight:normal; stroke-opacity:1;" contentScriptType="text/ecmascript" preserveAspectRatio="xMidYMid meet" zoomAndPan="magnify" version="1.0" contentStyleType="text/css" xml:xlink="http://www.w3.org/1999/xlink" width="971" height="581"><rect x="10" y="10" width="961" height="571" ry="0" rx="0" style="stroke:#000000; fill:#FFFFFF" /><rect x="40" y="10" width="931" height="571" ry="0" rx="0" style="stroke:#000000; fill:#008080" /><g componentSequence="2"><text x="-295" y="47" transform="rotate(270)" text-anchor="middle" style="font-weight:bold;font-size:10px;stroke:none; fill:#434343" /></g><g componentSequence="1"><text x="-295" y="17" transform="rotate(270)" text-anchor="middle" style="font-weight:bold;font-size:10px;stroke:none; fill:#434343"><tspan dy="14" x="-295">Abertura de Chamados</tspan></text></g><g sequence="4"><ellipse cx="117" cy="267" rx="17" ry="17" stroke-width="1" style="fill:url(#linearGradient66FF6696FF96B6FFB6_1381757811);" stroke="336633" /></g><g sequence="9"><rect x="370" y="40" width="106" height="70" ry="5" rx="5" style="fill:url(#linearGradientF8FBFEEDF5FCDEEDFAD4E7F8E2E5E9_1553729352);" stroke="191970" /></g><g componentSequence="9"><text x="423" y="55" text-anchor="middle" style="font-weight:bold;font-size:10px;stroke:none; fill:#333399"><tspan dy="14" x="423">E-Mail</tspan><tspan dy="14" x="423">Corporativo</tspan></text></g><g sequence="11"><rect x="370" y="140" width="106" height="70" ry="5" rx="5" style="fill:url(#linearGradientF8FBFEEDF5FCDEEDFAD4E7F8E2E5E9_1487116291);" stroke="191970" /></g><g componentSequence="11"><text x="423" y="155" text-anchor="middle" style="font-weight:bold;font-size:10px;stroke:none; fill:#333399"><tspan dy="14" x="423">Criação COD no</tspan><tspan dy="14" x="423">CRM</tspan></text></g><g sequence="13"><rect x="370" y="240" width="106" height="70" ry="5" rx="5" style="fill:url(#linearGradientF8FBFEEDF5FCDEEDFAD4E7F8E2E5E9_497094003);" stroke="191970" /></g><g componentSequence="13"><text x="423" y="264" text-anchor="middle" style="font-weight:bold;font-size:10px;stroke:none; fill:#333399"><tspan dy="14" x="423">Portal do Cliente</tspan></text></g><g sequence="15"><rect x="710" y="40" width="106" height="70" ry="5" rx="5" style="fill:url(#linearGradientF8FBFEEDF5FCDEEDFAD4E7F8E2E5E9_283948511);" stroke="191970" /></g><g componentSequence="15"><text x="763" y="55" text-anchor="middle" style="font-weight:bold;font-size:10px;stroke:none; fill:#333399"><tspan dy="14" x="763">Usuário CRM e</tspan><tspan dy="14" x="763">EST. Vendas</tspan></text></g><g sequence="21"><ellipse cx="867" cy="267" rx="17" ry="17" stroke-width="3" style="fill:url(#linearGradientFF6666FF9696FFB6B6_745952973);" stroke="993333" /></g><g sequence="23"><rect x="370" y="340" width="106" height="70" ry="5" rx="5" style="fill:url(#linearGradientF8FBFEEDF5FCDEEDFAD4E7F8E2E5E9_1758572736);" stroke="191970" /></g><g componentSequence="23"><text x="423" y="355" text-anchor="middle" style="font-weight:bold;font-size:10px;stroke:none; fill:#333399"><tspan dy="14" x="423">Cadastro de</tspan><tspan dy="14" x="423">Fornecedor</tspan></text></g><g sequence="26"><polygon points=" 230 260 260 230 290 260 260 290 230 260" style="fill:url(#linearGradientFAFBFCFFFFCC_2106520124);" stroke="000000" /></g><path style="fill:none; stroke-width:6; stroke:#000000;" d="M250.0 260.0 L270.0 260.0" /><path style="fill:none; stroke-width:6; stroke:#000000;" d="M260.0 250.0 L260.0 270.0" /><g componentSequence="26"><text x="260" y="293" text-anchor="middle" style="font-weight:bold;font-size:10px;stroke:none; fill:#333399"><tspan dy="14" x="260">Paralelo</tspan></text></g><g sequence="27"><polygon points=" 730 260 760 230 790 260 760 290 730 260" style="fill:url(#linearGradientFAFBFCFFFFCC_146403871);" stroke="000000" /></g><path style="fill:none; stroke-width:6; stroke:#000000;" d="M750.0 260.0 L770.0 260.0" /><path style="fill:none; stroke-width:6; stroke:#000000;" d="M760.0 250.0 L760.0 270.0" /><g componentSequence="27"><text x="760" y="293" text-anchor="middle" style="font-weight:bold;font-size:10px;stroke:none; fill:#333399"><tspan dy="14" x="760">Join</tspan></text></g><g sequence="43"><polygon points=" 580 60 610 30 640 60 610 90 580 60" style="fill:url(#linearGradientFAFBFCFFFFCC_384241147);" stroke="000000" /></g><path style="fill:none; stroke-width:6; stroke:#000000;" d="M600.0 60.0 L620.0 60.0" /><path style="fill:none; stroke-width:6; stroke:#000000;" d="M610.0 50.0 L610.0 70.0" /><g componentSequence="43"><text x="610" y="100" text-anchor="middle" style="font-weight:bold;font-size:10px;stroke:none; fill:#333399"><tspan dy="14" x="610">Join</tspan><tspan dy="14" x="610">Email</tspan></text></g><g componentSequence="28"><text x="830" y="270" style="font-size:10px;font-weight:none;stroke:none; fill:#333399" text-anchor="left" /></g><g componentSequence="29"><text x="270" y="97" style="font-size:10px;font-weight:none;stroke:none; fill:#333399" text-anchor="left" /></g><g componentSequence="30"><text x="297" y="174" style="font-size:10px;font-weight:none;stroke:none; fill:#333399" text-anchor="left" /></g><g componentSequence="31"><text x="340" y="274" style="font-size:10px;font-weight:none;stroke:none; fill:#333399" text-anchor="left" /></g><g componentSequence="33"><text x="297" y="374" style="font-size:10px;font-weight:none;stroke:none; fill:#333399" text-anchor="left" /></g><g componentSequence="34"><text x="192" y="270" style="font-size:10px;font-weight:none;stroke:none; fill:#333399" text-anchor="left" /></g><g componentSequence="35"><text x="656" y="375" style="font-size:10px;font-weight:none;stroke:none; fill:#333399" text-anchor="left" /></g><g componentSequence="40"><text x="613" y="274" style="font-size:10px;font-weight:none;stroke:none; fill:#333399" text-anchor="left" /></g><g componentSequence="42"><text x="769" y="170" style="font-size:10px;font-weight:none;stroke:none; fill:#333399" text-anchor="left" /></g><g componentSequence="44"><text x="575" y="175" style="font-size:10px;font-weight:none;stroke:none; fill:#333399" text-anchor="left" /></g><g componentSequence="45"><text x="538" y="78" style="font-size:10px;font-weight:none;stroke:none; fill:#333399" text-anchor="left" /></g><g componentSequence="46"><text x="685" y="78" style="font-size:10px;font-weight:none;stroke:none; fill:#333399" text-anchor="left" /></g><path style="fill:none; stroke:#000000;stroke-width:1" d="M134.0 267.0 L229.0 272.0" /><polygon style="fill:#000000; stroke:#000000;" points=" 219 266 229 272 219 276 221 272" /><path style="fill:none; stroke:#000000;stroke-width:1" d="M476.0 76.0 L579.0 80.0" /><polygon style="fill:#000000; stroke:#000000;" points=" 569 75 579 80 569 85 571 80" /><path style="fill:none; stroke:#000000;stroke-width:1" d="M260.0 229.0 L260.0 74.0 L369.0 74.0" /><polygon style="fill:#000000; stroke:#000000;" points=" 359 69 369 74 359 79 361 74" /><path style="fill:none; stroke:#000000;stroke-width:1" d="M476.0 175.0 L610.0 175.0 L610.0 132.0" /><polygon style="fill:#000000; stroke:#000000;" points=" 605 142 610 132 615 142 610 140" /><path style="fill:none; stroke:#000000;stroke-width:1" d="M260.0 229.0 L260.0 174.0 L369.0 174.0" /><polygon style="fill:#000000; stroke:#000000;" points=" 359 169 369 174 359 179 361 174" /><path style="fill:none; stroke:#000000;stroke-width:1" d="M476.0 274.0 L729.0 274.0" /><polygon style="fill:#000000; stroke:#000000;" points=" 719 269 729 274 719 279 721 274" /><path style="fill:none; stroke:#000000;stroke-width:1" d="M290.0 274.0 L369.0 274.0" /><polygon style="fill:#000000; stroke:#000000;" points=" 359 269 369 274 359 279 361 274" /><path style="fill:none; stroke:#000000;stroke-width:1" d="M759.0 110.0 L759.0 110.0 L759.0 169.0 L759.0 229.0" /><polygon style="fill:#000000; stroke:#000000;" points=" 764 219 759 229 754 219 759 221" /><path style="fill:none; stroke:#000000;stroke-width:1" d="M640.0 79.0 L709.0 77.0" /><polygon style="fill:#000000; stroke:#000000;" points=" 699 72 709 77 699 82 701 77" /><path style="fill:none; stroke:#000000;stroke-width:1" d="M790.0 272.0 L850.0 268.0" /><polygon style="fill:#000000; stroke:#000000;" points=" 840 264 850 268 840 274 842 269" /><path style="fill:none; stroke:#000000;stroke-width:1" d="M476.0 375.0 L759.0 375.0 L759.0 318.0" /><polygon style="fill:#000000; stroke:#000000;" points=" 754 328 759 318 764 328 759 326" /><path style="fill:none; stroke:#000000;stroke-width:1" d="M260.0 318.0 L260.0 374.0 L369.0 374.0" /><polygon style="fill:#000000; stroke:#000000;" points=" 359 369 369 374 359 379 361 374" /><defs><linearGradient xmlns:xlink="http://www.w3.org/1999/xlink" xlink:href="#linearGradient66FF6696FF96B6FFB6" id="linearGradient66FF6696FF96B6FFB6_1381757811" x1="0" y1="250.0" x2="0" y2="285.0" gradientUnits="userSpaceOnUse" xlink:type="simple" xlink:actuate="onLoad" xlink:show="other" /><linearGradient id="linearGradient66FF6696FF96B6FFB6"><stop style="stop-color:#66FF66;stop-opacity:1;" offset="0.0" id="stop66FF66" /><stop style="stop-color:#96FF96;stop-opacity:1;" offset="0.5" id="stop96FF96" /><stop style="stop-color:#B6FFB6;stop-opacity:1;" offset="1.0" id="stopB6FFB6" /></linearGradient><linearGradient xmlns:xlink="http://www.w3.org/1999/xlink" xlink:href="#linearGradientF8FBFEEDF5FCDEEDFAD4E7F8E2E5E9" id="linearGradientF8FBFEEDF5FCDEEDFAD4E7F8E2E5E9_1553729352" x1="0" y1="40.0" x2="0" y2="146.0" gradientUnits="userSpaceOnUse" xlink:type="simple" xlink:actuate="onLoad" xlink:show="other" /><linearGradient id="linearGradientF8FBFEEDF5FCDEEDFAD4E7F8E2E5E9"><stop style="stop-color:#F8FBFE;stop-opacity:1;" offset="0.0" id="stopF8FBFE" /><stop style="stop-color:#EDF5FC;stop-opacity:1;" offset="0.25" id="stopEDF5FC" /><stop style="stop-color:#DEEDFA;stop-opacity:1;" offset="0.5" id="stopDEEDFA" /><stop style="stop-color:#D4E7F8;stop-opacity:1;" offset="0.75" id="stopD4E7F8" /><stop style="stop-color:#E2E5E9;stop-opacity:1;" offset="1.0" id="stopE2E5E9" /></linearGradient><linearGradient xmlns:xlink="http://www.w3.org/1999/xlink" xlink:href="#linearGradientF8FBFEEDF5FCDEEDFAD4E7F8E2E5E9" id="linearGradientF8FBFEEDF5FCDEEDFAD4E7F8E2E5E9_1487116291" x1="0" y1="140.0" x2="0" y2="246.0" gradientUnits="userSpaceOnUse" xlink:type="simple" xlink:actuate="onLoad" xlink:show="other" /><linearGradient xmlns:xlink="http://www.w3.org/1999/xlink" xlink:href="#linearGradientF8FBFEEDF5FCDEEDFAD4E7F8E2E5E9" id="linearGradientF8FBFEEDF5FCDEEDFAD4E7F8E2E5E9_497094003" x1="0" y1="240.0" x2="0" y2="346.0" gradientUnits="userSpaceOnUse" xlink:type="simple" xlink:actuate="onLoad" xlink:show="other" /><linearGradient xmlns:xlink="http://www.w3.org/1999/xlink" xlink:href="#linearGradientF8FBFEEDF5FCDEEDFAD4E7F8E2E5E9" id="linearGradientF8FBFEEDF5FCDEEDFAD4E7F8E2E5E9_283948511" x1="0" y1="40.0" x2="0" y2="146.0" gradientUnits="userSpaceOnUse" xlink:type="simple" xlink:actuate="onLoad" xlink:show="other" /><linearGradient xmlns:xlink="http://www.w3.org/1999/xlink" xlink:href="#linearGradientFF6666FF9696FFB6B6" id="linearGradientFF6666FF9696FFB6B6_745952973" x1="0" y1="250.0" x2="0" y2="285.0" gradientUnits="userSpaceOnUse" xlink:type="simple" xlink:actuate="onLoad" xlink:show="other" /><linearGradient id="linearGradientFF6666FF9696FFB6B6"><stop style="stop-color:#FF6666;stop-opacity:1;" offset="0.0" id="stopFF6666" /><stop style="stop-color:#FF9696;stop-opacity:1;" offset="0.5" id="stopFF9696" /><stop style="stop-color:#FFB6B6;stop-opacity:1;" offset="1.0" id="stopFFB6B6" /></linearGradient><linearGradient xmlns:xlink="http://www.w3.org/1999/xlink" xlink:href="#linearGradientF8FBFEEDF5FCDEEDFAD4E7F8E2E5E9" id="linearGradientF8FBFEEDF5FCDEEDFAD4E7F8E2E5E9_1758572736" x1="0" y1="340.0" x2="0" y2="446.0" gradientUnits="userSpaceOnUse" xlink:type="simple" xlink:actuate="onLoad" xlink:show="other" /><linearGradient xmlns:xlink="http://www.w3.org/1999/xlink" xlink:href="#linearGradientFAFBFCFFFFCC" id="linearGradientFAFBFCFFFFCC_2106520124" x1="0" y1="230.0" x2="0" y2="290.0" gradientUnits="userSpaceOnUse" xlink:type="simple" xlink:actuate="onLoad" xlink:show="other" /><linearGradient id="linearGradientFAFBFCFFFFCC"><stop style="stop-color:#FAFBFC;stop-opacity:1;" offset="0.0" id="stopFAFBFC" /><stop style="stop-color:#FFFFCC;stop-opacity:1;" offset="1.0" id="stopFFFFCC" /></linearGradient><linearGradient xmlns:xlink="http://www.w3.org/1999/xlink" xlink:href="#linearGradientFAFBFCFFFFCC" id="linearGradientFAFBFCFFFFCC_146403871" x1="0" y1="230.0" x2="0" y2="290.0" gradientUnits="userSpaceOnUse" xlink:type="simple" xlink:actuate="onLoad" xlink:show="other" /><linearGradient xmlns:xlink="http://www.w3.org/1999/xlink" xlink:href="#linearGradientFAFBFCFFFFCC" id="linearGradientFAFBFCFFFFCC_384241147" x1="0" y1="30.0" x2="0" y2="90.0" gradientUnits="userSpaceOnUse" xlink:type="simple" xlink:actuate="onLoad" xlink:show="other" /></defs></svg>
