<?xml version="1.0" encoding="UTF-8"?>
<svg xmlns="http://www.w3.org/2000/svg" style="stroke-dasharray:none; shape-rendering:auto; font-family:'Arial'; text-rendering:auto; fill-opacity:1; color-interpolation:auto; color-rendering:auto; font-size:12; fill:black; stroke:black; image-rendering:auto; stroke-miterlimit:10; stroke-linecap:square; stroke-linejoin:miter; font-style:normal; stroke-width:1; stroke-dashoffset:0; font-weight:normal; stroke-opacity:1;" contentScriptType="text/ecmascript" preserveAspectRatio="xMidYMid meet" zoomAndPan="magnify" version="1.0" contentStyleType="text/css" xml:xlink="http://www.w3.org/1999/xlink" width="2770" height="785"><rect x="10" y="10" width="831" height="290" ry="0" rx="0" style="stroke:#000000; fill:#FFFFFF" /><rect x="40" y="155" width="801" height="145" ry="0" rx="0" style="stroke:#000000; fill:#C0C0C0" /><rect x="40" y="10" width="801" height="145" ry="0" rx="0" style="stroke:#000000; fill:#9F9F9F" /><g sequence="4"><ellipse cx="167" cy="99" rx="17" ry="17" stroke-width="1" style="fill:url(#linearGradient66FF6696FF96B6FFB6_563144034);" stroke="336633" /></g><g sequence="5"><rect x="260" y="208" width="106" height="56" ry="5" rx="5" style="fill:url(#linearGradientF8FBFEEDF5FCDEEDFAD4E7F8E2E5E9_794238752);" stroke="191970" /></g><g componentSequence="5"><text x="313" y="225" text-anchor="middle" style="font-weight:bold;font-size:10px;stroke:none; fill:#333399"><tspan dy="14" x="313">Act1</tspan></text></g><rect x="210" y="20" width="105" height="55" ry="5" rx="5" style="stroke:none; fill:#FFFFE0" /><g componentSequence="7"><text x="220" y="33" text-anchor="left" style="font-weight:bold;font-size:10px;stroke:none; fill:#000000"><tspan dy="14" x="220">Start</tspan></text></g><path style="fill:none; stroke-width:1; stroke:#000000;" d="M230.0 20.0 L210.0 20.0 L210.0 75.0 L230.0 75.0" /><g sequence="9"><ellipse cx="471" cy="232" rx="17" ry="17" stroke-width="3" style="fill:url(#linearGradientFF6666FF9696FFB6B6_728272402);" stroke="993333" /></g><g componentSequence="10"><text x="162" y="251" style="font-size:10px;font-weight:none;stroke:none; fill:#333399" text-anchor="left" /></g><g componentSequence="11"><text x="237" y="239" style="font-size:10px;font-weight:none;stroke:none; fill:#333399" text-anchor="left" /></g><g componentSequence="30"><text x="901" y="316" style="font-size:10px;font-weight:none;stroke:none; fill:#333399" text-anchor="left"><tspan dy="14" x="901">Não</tspan></text></g><g componentSequence="33"><text x="750" y="390" style="font-size:10px;font-weight:none;stroke:none; fill:#333399" text-anchor="left"><tspan dy="14" x="750">Sim</tspan></text></g><g componentSequence="35"><text x="537" y="464" style="font-size:10px;font-weight:none;stroke:none; fill:#333399" text-anchor="left" /></g><g componentSequence="37"><text x="858" y="440" style="font-size:10px;font-weight:none;stroke:none; fill:#333399" text-anchor="left" /></g><g componentSequence="50"><text x="1270" y="248" style="font-size:10px;font-weight:none;stroke:none; fill:#333399" text-anchor="left"><tspan dy="14" x="1270">Sim</tspan></text></g><g componentSequence="53"><text x="1413" y="72" style="font-size:10px;font-weight:none;stroke:none; fill:#333399" text-anchor="left" /></g><g componentSequence="59"><text x="1678" y="195" style="font-size:10px;font-weight:none;stroke:none; fill:#333399" text-anchor="left" /></g><g componentSequence="60"><text x="1556" y="439" style="font-size:10px;font-weight:none;stroke:none; fill:#333399" text-anchor="left"><tspan dy="14" x="1556">Não</tspan></text></g><g componentSequence="62"><text x="1833" y="195" style="font-size:10px;font-weight:none;stroke:none; fill:#333399" text-anchor="left" /></g><g componentSequence="63"><text x="1673" y="69" style="font-size:10px;font-weight:none;stroke:none; fill:#333399" text-anchor="left"><tspan dy="14" x="1673">Aprovado</tspan></text></g><g componentSequence="66"><text x="1912" y="248" style="font-size:10px;font-weight:none;stroke:none; fill:#333399" text-anchor="left" /></g><g componentSequence="68"><text x="1911" y="399" style="font-size:10px;font-weight:none;stroke:none; fill:#333399" text-anchor="left"><tspan dy="14" x="1911">Não</tspan></text></g><g componentSequence="75"><text x="509" y="72" style="font-size:10px;font-weight:none;stroke:none; fill:#333399" text-anchor="left"><tspan dy="14" x="509">Não</tspan></text></g><g componentSequence="83"><text x="638" y="317" style="font-size:10px;font-weight:none;stroke:none; fill:#333399" text-anchor="left" /></g><g componentSequence="86"><text x="1198" y="440" style="font-size:10px;font-weight:none;stroke:none; fill:#333399" text-anchor="left" /></g><g componentSequence="93"><text x="1011" y="440" style="font-size:10px;font-weight:none;stroke:none; fill:#333399" text-anchor="left"><tspan dy="14" x="1011">Sim</tspan></text></g><g componentSequence="94"><text x="575" y="483" style="font-size:10px;font-weight:none;stroke:none; fill:#333399" text-anchor="left"><tspan dy="14" x="575">Não</tspan></text></g><g componentSequence="95"><text x="1266" y="320" style="font-size:10px;font-weight:none;stroke:none; fill:#333399" text-anchor="left"><tspan dy="14" x="1266">Reprovado</tspan></text></g><g componentSequence="97"><text x="708" y="496" style="font-size:10px;font-weight:none;stroke:none; fill:#333399" text-anchor="left" /></g><g componentSequence="105"><text x="1103" y="311" style="font-size:10px;font-weight:none;stroke:none; fill:#333399" text-anchor="left" /></g><g componentSequence="107"><text x="199" y="98" style="font-size:10px;font-weight:none;stroke:none; fill:#333399" text-anchor="left" /></g><g componentSequence="108"><text x="104" y="285" style="font-size:10px;font-weight:none;stroke:none; fill:#333399" text-anchor="left" /></g><g componentSequence="109"><text x="254" y="315" style="font-size:10px;font-weight:none;stroke:none; fill:#333399" text-anchor="left" /></g><g componentSequence="113"><text x="763" y="195" style="font-size:10px;font-weight:none;stroke:none; fill:#333399" text-anchor="left" /></g><g componentSequence="114"><text x="840" y="140" style="font-size:10px;font-weight:none;stroke:none; fill:#333399" text-anchor="left"><tspan dy="14" x="840">Não</tspan></text></g><g componentSequence="115"><text x="895" y="376" style="font-size:10px;font-weight:none;stroke:none; fill:#333399" text-anchor="left"><tspan dy="14" x="895">Sim</tspan></text></g><g componentSequence="116"><text x="412" y="379" style="font-size:10px;font-weight:none;stroke:none; fill:#333399" text-anchor="left" /></g><g componentSequence="117"><text x="323" y="264" style="font-size:10px;font-weight:none;stroke:none; fill:#333399" text-anchor="left" /></g><g componentSequence="118"><text x="610" y="270" style="font-size:10px;font-weight:none;stroke:none; fill:#333399" text-anchor="left"><tspan dy="14" x="610">Reprovado</tspan></text></g><g componentSequence="119"><text x="750" y="113" style="font-size:10px;font-weight:none;stroke:none; fill:#333399" text-anchor="left"><tspan dy="14" x="750">Reprovado</tspan></text></g><g componentSequence="121"><text x="1156" y="107" style="font-size:10px;font-weight:none;stroke:none; fill:#333399" text-anchor="left"><tspan dy="14" x="1156">Aprovado</tspan></text></g><g componentSequence="122"><text x="806" y="30" style="font-size:10px;font-weight:none;stroke:none; fill:#333399" text-anchor="left"><tspan dy="14" x="806">Reprovado</tspan></text></g><g componentSequence="123"><text x="1048" y="73" style="font-size:10px;font-weight:none;stroke:none; fill:#333399" text-anchor="left" /></g><g componentSequence="125"><text x="1070" y="170" style="font-size:10px;font-weight:none;stroke:none; fill:#333399" text-anchor="left"><tspan dy="14" x="1070">Aprovado</tspan></text></g><g componentSequence="126"><text x="980" y="120" style="font-size:10px;font-weight:none;stroke:none; fill:#333399" text-anchor="left"><tspan dy="14" x="980">Reprovado</tspan></text></g><g componentSequence="127"><text x="1013" y="193" style="font-size:10px;font-weight:none;stroke:none; fill:#333399" text-anchor="left" /></g><g componentSequence="132"><text x="2208" y="168" style="font-size:10px;font-weight:none;stroke:none; fill:#333399" text-anchor="left"><tspan dy="14" x="2208">Master/PVF</tspan></text></g><g componentSequence="134"><text x="2184" y="240" style="font-size:10px;font-weight:none;stroke:none; fill:#333399" text-anchor="left"><tspan dy="14" x="2184">Complem.</tspan></text></g><g componentSequence="136"><text x="2316" y="240" style="font-size:10px;font-weight:none;stroke:none; fill:#333399" text-anchor="left"><tspan dy="14" x="2316">Sim</tspan></text></g><g componentSequence="141"><text x="1879" y="588" style="font-size:10px;font-weight:none;stroke:none; fill:#333399" text-anchor="left" /></g><g componentSequence="142"><text x="2004" y="612" style="font-size:10px;font-weight:none;stroke:none; fill:#333399" text-anchor="left"><tspan dy="14" x="2004">Não</tspan></text></g><g componentSequence="150"><text x="1728" y="587" style="font-size:10px;font-weight:none;stroke:none; fill:#333399" text-anchor="left"><tspan dy="14" x="1728">Sim</tspan></text></g><g componentSequence="151"><text x="1617" y="559" style="font-size:10px;font-weight:none;stroke:none; fill:#333399" text-anchor="left" /></g><g componentSequence="152"><text x="1617" y="588" style="font-size:10px;font-weight:none;stroke:none; fill:#333399" text-anchor="left" /></g><g componentSequence="153"><text x="1617" y="618" style="font-size:10px;font-weight:none;stroke:none; fill:#333399" text-anchor="left" /></g><g componentSequence="155"><text x="1438" y="559" style="font-size:10px;font-weight:none;stroke:none; fill:#333399" text-anchor="left" /></g><g componentSequence="156"><text x="1438" y="588" style="font-size:10px;font-weight:none;stroke:none; fill:#333399" text-anchor="left" /></g><g componentSequence="157"><text x="1438" y="618" style="font-size:10px;font-weight:none;stroke:none; fill:#333399" text-anchor="left" /></g><g componentSequence="159"><text x="1294" y="588" style="font-size:10px;font-weight:none;stroke:none; fill:#333399" text-anchor="left" /></g><g componentSequence="161"><text x="1215" y="679" style="font-size:10px;font-weight:none;stroke:none; fill:#333399" text-anchor="left"><tspan dy="14" x="1215">Não</tspan></text></g><g componentSequence="164"><text x="1009" y="731" style="font-size:10px;font-weight:none;stroke:none; fill:#333399" text-anchor="left" /></g><g componentSequence="165"><text x="1173" y="731" style="font-size:10px;font-weight:none;stroke:none; fill:#333399" text-anchor="left" /></g><g componentSequence="167"><text x="2402" y="217" style="font-size:10px;font-weight:none;stroke:none; fill:#333399" text-anchor="left"><tspan dy="14" x="2402">Não</tspan></text></g><g componentSequence="169"><text x="2488" y="334" style="font-size:10px;font-weight:none;stroke:none; fill:#333399" text-anchor="left" /></g><g componentSequence="171"><text x="2638" y="334" style="font-size:10px;font-weight:none;stroke:none; fill:#333399" text-anchor="left" /></g><g componentSequence="172"><text x="2571" y="571" style="font-size:10px;font-weight:none;stroke:none; fill:#333399" text-anchor="left" /></g><g componentSequence="173"><text x="924" y="600" style="font-size:10px;font-weight:none;stroke:none; fill:#333399" text-anchor="left"><tspan dy="14" x="924">Sim</tspan></text></g><g componentSequence="175"><text x="2120" y="582" style="font-size:10px;font-weight:none;stroke:none; fill:#333399" text-anchor="left" /></g><g componentSequence="176"><text x="2037" y="583" style="font-size:10px;font-weight:none;stroke:none; fill:#333399" text-anchor="left" /></g><g componentSequence="177"><text x="1989" y="509" style="font-size:10px;font-weight:none;stroke:none; fill:#333399" text-anchor="left" /></g><g componentSequence="179"><text x="2054" y="396" style="font-size:10px;font-weight:none;stroke:none; fill:#333399" text-anchor="left" /></g><g componentSequence="180"><text x="2044" y="317" style="font-size:10px;font-weight:none;stroke:none; fill:#333399" text-anchor="left" /></g><g componentSequence="181"><text x="2128" y="191" style="font-size:10px;font-weight:none;stroke:none; fill:#333399" text-anchor="left" /></g><path style="fill:none; stroke:#000000;stroke-width:1" d="M152.0 89.0 L152.0 411.0" /><polygon style="fill:#000000; stroke:#000000;" points=" 157 401 152 411 147 401 152 403" /><path style="fill:none; stroke:#000000;stroke-width:1" d="M189.0 143.0 L189.0 72.0 L170.0 72.0" /><polygon style="fill:#000000; stroke:#000000;" points=" 180 77 170 72 180 67 178 72" /><path style="fill:none; stroke:#000000;stroke-width:1" d="M206.0 439.0 L227.0 439.0 L227.0 72.0 L282.0 72.0" /><polygon style="fill:#000000; stroke:#000000;" points=" 272 67 282 72 272 77 274 72" /><path style="fill:none; stroke:#000000;stroke-width:1" d="M343.0 72.0 L654.0 72.0" /><polygon style="fill:#000000; stroke:#000000;" points=" 644 67 654 72 644 77 646 72" /><path style="fill:none; stroke:#000000;stroke-width:1" d="M313.0 123.0 L313.0 404.0" /><polygon style="fill:#000000; stroke:#000000;" points=" 318 394 313 404 308 394 313 396" /><path style="fill:none; stroke:#000000;stroke-width:1" d="M808.0 136.0 L808.0 113.0 L672.0 113.0 L672.0 90.0" /><polygon style="fill:#000000; stroke:#000000;" points=" 667 100 672 90 677 100 672 98" /><path style="fill:none; stroke:#000000;stroke-width:1" d="M1089.0 43.0 L1067.0 21.0 L672.0 21.0 L672.0 54.0" /><polygon style="fill:#000000; stroke:#000000;" points=" 677 44 672 54 667 44 672 46" /><path style="fill:none; stroke:#000000;stroke-width:1" d="M546.0 317.0 L709.0 317.0" /><polygon style="fill:#000000; stroke:#000000;" points=" 699 312 709 317 699 322 701 317" /><polygon style="fill:#000000; stroke:#000000;" points=" 551 312 561 322" /><path style="fill:none; stroke:#000000;stroke-width:1" d="M667.0 464.0 L492.0 464.0 L492.0 359.0" /><polygon style="fill:#000000; stroke:#000000;" points=" 487 369 492 359 497 369 492 367" /><path style="fill:none; stroke:#000000;stroke-width:1" d="M1034.0 490.0 L1034.0 496.0 L492.0 496.0 L492.0 359.0" /><polygon style="fill:#000000; stroke:#000000;" points=" 487 369 492 359 497 369 492 367" /><path style="fill:none; stroke:#000000;stroke-width:1" d="M365.0 404.0 L439.0 353.0" /><polygon style="fill:#000000; stroke:#000000;" points=" 428 355 439 353 434 363 432 358" /><path style="fill:none; stroke:#000000;stroke-width:1" d="M726.0 195.0 L779.0 195.0" /><polygon style="fill:#000000; stroke:#000000;" points=" 769 190 779 195 769 200 771 195" /><polygon style="fill:#000000; stroke:#000000;" points=" 731 190 741 200" /><path style="fill:none; stroke:#000000;stroke-width:1" d="M902.0 487.0 L902.0 487.0 L565.0 487.0 L565.0 195.0 L619.0 195.0" /><polygon style="fill:#000000; stroke:#000000;" points=" 609 190 619 195 609 200 611 195" /><path style="fill:none; stroke:#000000;stroke-width:1" d="M709.0 317.0 L673.0 317.0 L673.0 237.0" /><polygon style="fill:#000000; stroke:#000000;" points=" 668 247 673 237 678 247 673 245" /><path style="fill:none; stroke:#000000;stroke-width:1" d="M986.0 193.0 L986.0 193.0 L1019.0 193.0 L1019.0 193.0" /><polygon style="fill:#000000; stroke:#000000;" points=" 1009 188 1019 193 1009 198 1011 193" /><path style="fill:none; stroke:#000000;stroke-width:1" d="M770.0 316.0 L932.0 316.0 L932.0 237.0" /><polygon style="fill:#000000; stroke:#000000;" points=" 927 247 932 237 937 247 932 245" /><path style="fill:none; stroke:#000000;stroke-width:1" d="M94.0 448.0 L94.0 187.0 L159.0 187.0" /><polygon style="fill:#000000; stroke:#000000;" points=" 149 182 159 187 149 192 151 187" /><path style="fill:none; stroke:#000000;stroke-width:1" d="M740.0 375.0 L740.0 404.0" /><polygon style="fill:#000000; stroke:#000000;" points=" 745 394 740 404 735 394 740 396" /><path style="fill:none; stroke:#000000;stroke-width:1" d="M793.0 440.0 L902.0 440.0" /><polygon style="fill:#000000; stroke:#000000;" points=" 892 435 902 440 892 445 894 440" /><path style="fill:none; stroke:#000000;stroke-width:1" d="M963.0 440.0 L1039.0 440.0" /><polygon style="fill:#000000; stroke:#000000;" points=" 1029 435 1039 440 1029 445 1031 440" /><path style="fill:none; stroke:#000000;stroke-width:1" d="M986.0 73.0 L1089.0 73.0" /><polygon style="fill:#000000; stroke:#000000;" points=" 1079 68 1089 73 1079 78 1081 73" /><path style="fill:none; stroke:#000000;stroke-width:1" d="M840.0 191.0 L865.0 188.0 L865.0 143.0 L925.0 143.0 L928.0 115.0" /><polygon style="fill:#000000; stroke:#000000;" points=" 922 124 928 115 932 125 927 123" /><path style="fill:none; stroke:#000000;stroke-width:1" d="M1048.0 169.0 L1047.0 144.0 L933.0 144.0 L933.0 115.0" /><polygon style="fill:#000000; stroke:#000000;" points=" 928 125 933 115 938 125 933 123" /><path style="fill:none; stroke:#000000;stroke-width:1" d="M1260.0 381.0 L1260.0 115.0" /><polygon style="fill:#000000; stroke:#000000;" points=" 1255 125 1260 115 1265 125 1260 123" /><path style="fill:none; stroke:#000000;stroke-width:1" d="M1290.0 439.0 L1593.0 439.0 L1593.0 230.0" /><polygon style="fill:#000000; stroke:#000000;" points=" 1588 240 1593 230 1598 240 1593 238" /><path style="fill:none; stroke:#000000;stroke-width:1" d="M1146.0 440.0 L1229.0 440.0" /><polygon style="fill:#000000; stroke:#000000;" points=" 1219 435 1229 440 1219 445 1221 440" /><path style="fill:none; stroke:#000000;stroke-width:1" d="M1313.0 72.0 L1412.0 72.0 L1412.0 152.0" /><polygon style="fill:#000000; stroke:#000000;" points=" 1417 142 1412 152 1407 142 1412 144" /><path style="fill:none; stroke:#000000;stroke-width:1" d="M1466.0 194.0 L1501.0 194.0 L1501.0 69.0 L1902.0 69.0 L1902.0 152.0" /><polygon style="fill:#000000; stroke:#000000;" points=" 1907 142 1902 152 1897 142 1902 144" /><path style="fill:none; stroke:#000000;stroke-width:1" d="M1413.0 237.0 L1413.0 320.0 L1092.0 320.0 L1092.0 397.0" /><polygon style="fill:#000000; stroke:#000000;" points=" 1097 387 1092 397 1087 387 1092 389" /><path style="fill:none; stroke:#000000;stroke-width:1" d="M1646.0 195.0 L1689.0 195.0" /><polygon style="fill:#000000; stroke:#000000;" points=" 1679 190 1689 195 1679 200 1681 195" /><path style="fill:none; stroke:#000000;stroke-width:1" d="M1796.0 195.0 L1849.0 195.0" /><polygon style="fill:#000000; stroke:#000000;" points=" 1839 190 1849 195 1839 200 1841 195" /><path style="fill:none; stroke:#000000;stroke-width:1" d="M1902.0 237.0 L1902.0 258.0" /><polygon style="fill:#000000; stroke:#000000;" points=" 1907 248 1902 258 1897 248 1902 250" /><path style="fill:none; stroke:#000000;stroke-width:1" d="M1901.0 375.0 L1901.0 423.0" /><polygon style="fill:#000000; stroke:#000000;" points=" 1906 413 1901 423 1896 413 1901 415" /><path style="fill:none; stroke:#000000;stroke-width:1" d="M1932.0 317.0 L2044.0 317.0 L2044.0 226.0" /><polygon style="fill:#000000; stroke:#000000;" points=" 2039 236 2044 226 2049 236 2044 234" /><path style="fill:none; stroke:#000000;stroke-width:1" d="M2039.0 561.0 L1914.0 451.0" /><polygon style="fill:#000000; stroke:#000000;" points=" 1918 461 1914 451 1925 454 1920 456" /><path style="fill:none; stroke:#000000;stroke-width:1" d="M2044.0 226.0 L2044.0 440.0 L1919.0 440.0" /><polygon style="fill:#000000; stroke:#000000;" points=" 1929 445 1919 440 1929 435 1927 440" /><path style="fill:none; stroke:#000000;stroke-width:1" d="M249.0 462.0 L244.0 461.0 L244.0 320.0 L244.0 187.0 L220.0 187.0" /><polygon style="fill:#000000; stroke:#000000;" points=" 230 192 220 187 230 182 228 187" /><path style="fill:none; stroke:#000000;stroke-width:1" d="M1119.0 236.0 L1093.0 259.0 L1093.0 397.0" /><polygon style="fill:#000000; stroke:#000000;" points=" 1098 387 1093 397 1088 387 1093 389" /><path style="fill:none; stroke:#000000;stroke-width:1" d="M810.0 253.0 L810.0 376.0 L1060.0 376.0 L1071.0 397.0" /><polygon style="fill:#000000; stroke:#000000;" points=" 1071 386 1071 397 1062 390 1067 390" /><path style="fill:none; stroke:#000000;stroke-width:1" d="M1143.0 124.0 L1150.0 139.0" /><polygon style="fill:#000000; stroke:#000000;" points=" 1150 128 1150 139 1141 132 1147 132" /><path style="fill:none; stroke:#000000;stroke-width:1" d="M1080.0 194.0 L1080.0 194.0 L1119.0 192.0" /><polygon style="fill:#000000; stroke:#000000;" points=" 1109 188 1119 192 1109 198 1111 192" /><path style="fill:none; stroke:#000000;stroke-width:1" d="M2200.0 190.0 L2238.0 190.0 L2279.0 190.0" /><polygon style="fill:#000000; stroke:#000000;" points=" 2269 185 2279 190 2269 195 2271 190" /><path style="fill:none; stroke:#000000;stroke-width:1" d="M2170.0 242.0 L2172.0 529.0" /><polygon style="fill:#000000; stroke:#000000;" points=" 2177 519 2172 529 2167 519 2172 521" /><path style="fill:none; stroke:#000000;stroke-width:1" d="M2097.0 191.0 L2139.0 191.0" /><polygon style="fill:#000000; stroke:#000000;" points=" 2129 186 2139 191 2129 196 2131 191" /><path style="fill:none; stroke:#000000;stroke-width:1" d="M2309.0 248.0 L2309.0 572.0 L2226.0 572.0" /><polygon style="fill:#000000; stroke:#000000;" points=" 2236 577 2226 572 2236 567 2234 572" /><path style="fill:none; stroke:#000000;stroke-width:1" d="M2340.0 190.0 L2392.0 190.0 L2392.0 296.0" /><polygon style="fill:#000000; stroke:#000000;" points=" 2397 286 2392 296 2387 286 2392 288" /><path style="fill:none; stroke:#000000;stroke-width:1" d="M2119.0 580.0 L2100.0 583.0" /><polygon style="fill:#000000; stroke:#000000;" points=" 2111 586 2100 583 2109 577 2108 582" /><path style="fill:none; stroke:#000000;stroke-width:1" d="M1830.0 611.0 L1860.0 634.0 L2175.0 634.0 L2174.0 614.0" /><polygon style="fill:#000000; stroke:#000000;" points=" 2170 624 2174 614 2179 624 2174 622" /><path style="fill:none; stroke:#000000;stroke-width:1" d="M2692.0 367.0 L2692.0 571.0 L2226.0 571.0" /><polygon style="fill:#000000; stroke:#000000;" points=" 2236 576 2226 571 2236 566 2234 571" /><path style="fill:none; stroke:#000000;stroke-width:1" d="M1907.0 588.0 L1907.0 588.0 L1830.0 588.0" /><polygon style="fill:#000000; stroke:#000000;" points=" 1840 593 1830 588 1840 583 1838 588" /><path style="fill:none; stroke:#000000;stroke-width:1" d="M2039.0 584.0 L2014.0 581.0" /><polygon style="fill:#000000; stroke:#000000;" points=" 2023 587 2014 581 2025 577 2022 582" /><path style="fill:none; stroke:#000000;stroke-width:1" d="M1769.0 588.0 L1704.0 588.0" /><polygon style="fill:#000000; stroke:#000000;" points=" 1714 593 1704 588 1714 583 1712 588" /><path style="fill:none; stroke:#000000;stroke-width:1" d="M1463.0 543.0 L1392.0 574.0" /><polygon style="fill:#000000; stroke:#000000;" points=" 1403 575 1392 574 1399 565 1399 571" /><path style="fill:none; stroke:#000000;stroke-width:1" d="M1643.0 574.0 L1570.0 543.0" /><polygon style="fill:#000000; stroke:#000000;" points=" 1577 552 1570 543 1581 542 1577 546" /><path style="fill:none; stroke:#000000;stroke-width:1" d="M1463.0 588.0 L1392.0 588.0" /><polygon style="fill:#000000; stroke:#000000;" points=" 1402 593 1392 588 1402 583 1400 588" /><path style="fill:none; stroke:#000000;stroke-width:1" d="M1643.0 588.0 L1570.0 588.0" /><polygon style="fill:#000000; stroke:#000000;" points=" 1580 593 1570 588 1580 583 1578 588" /><path style="fill:none; stroke:#000000;stroke-width:1" d="M1463.0 634.0 L1392.0 602.0" /><polygon style="fill:#000000; stroke:#000000;" points=" 1399 611 1392 602 1403 602 1399 605" /><path style="fill:none; stroke:#000000;stroke-width:1" d="M1643.0 601.0 L1570.0 635.0" /><polygon style="fill:#000000; stroke:#000000;" points=" 1581 635 1570 635 1577 626 1577 632" /><path style="fill:none; stroke:#000000;stroke-width:1" d="M1331.0 588.0 L1236.0 588.0" /><polygon style="fill:#000000; stroke:#000000;" points=" 1246 593 1236 588 1246 583 1244 588" /><path style="fill:none; stroke:#000000;stroke-width:1" d="M1205.0 646.0 L1205.0 713.0" /><polygon style="fill:#000000; stroke:#000000;" points=" 1210 703 1205 713 1200 703 1205 705" /><path style="fill:none; stroke:#000000;stroke-width:1" d="M1175.0 587.0 L912.0 585.0 L912.0 679.0" /><polygon style="fill:#000000; stroke:#000000;" points=" 917 669 912 679 907 669 912 671" /><path style="fill:none; stroke:#000000;stroke-width:1" d="M1138.0 731.0 L1188.0 730.0" /><polygon style="fill:#000000; stroke:#000000;" points=" 1178 725 1188 730 1178 735 1180 730" /><path style="fill:none; stroke:#000000;stroke-width:1" d="M966.0 730.0 L1031.0 731.0" /><polygon style="fill:#000000; stroke:#000000;" points=" 1021 726 1031 731 1021 736 1023 731" /><path style="fill:none; stroke:#000000;stroke-width:1" d="M2446.0 333.0 L2509.0 334.0" /><polygon style="fill:#000000; stroke:#000000;" points=" 2499 329 2509 334 2499 339 2501 334" /><path style="fill:none; stroke:#000000;stroke-width:1" d="M2616.0 334.0 L2639.0 333.0" /><polygon style="fill:#000000; stroke:#000000;" points=" 2629 328 2639 333 2629 338 2631 333" /><defs><linearGradient xmlns:xlink="http://www.w3.org/1999/xlink" xlink:href="#linearGradient66FF6696FF96B6FFB6" id="linearGradient66FF6696FF96B6FFB6_563144034" x1="0" y1="82.0" x2="0" y2="117.0" gradientUnits="userSpaceOnUse" xlink:type="simple" xlink:actuate="onLoad" xlink:show="other" /><linearGradient id="linearGradient66FF6696FF96B6FFB6"><stop style="stop-color:#66FF66;stop-opacity:1;" offset="0.0" id="stop66FF66" /><stop style="stop-color:#96FF96;stop-opacity:1;" offset="0.5" id="stop96FF96" /><stop style="stop-color:#B6FFB6;stop-opacity:1;" offset="1.0" id="stopB6FFB6" /></linearGradient><linearGradient xmlns:xlink="http://www.w3.org/1999/xlink" xlink:href="#linearGradientF8FBFEEDF5FCDEEDFAD4E7F8E2E5E9" id="linearGradientF8FBFEEDF5FCDEEDFAD4E7F8E2E5E9_794238752" x1="0" y1="208.0" x2="0" y2="314.0" gradientUnits="userSpaceOnUse" xlink:type="simple" xlink:actuate="onLoad" xlink:show="other" /><linearGradient id="linearGradientF8FBFEEDF5FCDEEDFAD4E7F8E2E5E9"><stop style="stop-color:#F8FBFE;stop-opacity:1;" offset="0.0" id="stopF8FBFE" /><stop style="stop-color:#EDF5FC;stop-opacity:1;" offset="0.25" id="stopEDF5FC" /><stop style="stop-color:#DEEDFA;stop-opacity:1;" offset="0.5" id="stopDEEDFA" /><stop style="stop-color:#D4E7F8;stop-opacity:1;" offset="0.75" id="stopD4E7F8" /><stop style="stop-color:#E2E5E9;stop-opacity:1;" offset="1.0" id="stopE2E5E9" /></linearGradient><linearGradient xmlns:xlink="http://www.w3.org/1999/xlink" xlink:href="#linearGradientFF6666FF9696FFB6B6" id="linearGradientFF6666FF9696FFB6B6_728272402" x1="0" y1="215.0" x2="0" y2="250.0" gradientUnits="userSpaceOnUse" xlink:type="simple" xlink:actuate="onLoad" xlink:show="other" /><linearGradient id="linearGradientFF6666FF9696FFB6B6"><stop style="stop-color:#FF6666;stop-opacity:1;" offset="0.0" id="stopFF6666" /><stop style="stop-color:#FF9696;stop-opacity:1;" offset="0.5" id="stopFF9696" /><stop style="stop-color:#FFB6B6;stop-opacity:1;" offset="1.0" id="stopFFB6B6" /></linearGradient></defs></svg>
