<?xml version="1.0" encoding="UTF-8"?>
<svg xmlns="http://www.w3.org/2000/svg" style="stroke-dasharray:none; shape-rendering:auto; font-family:'Arial'; text-rendering:auto; fill-opacity:1; color-interpolation:auto; color-rendering:auto; font-size:12; fill:black; stroke:black; image-rendering:auto; stroke-miterlimit:10; stroke-linecap:square; stroke-linejoin:miter; font-style:normal; stroke-width:1; stroke-dashoffset:0; font-weight:normal; stroke-opacity:1;" contentScriptType="text/ecmascript" preserveAspectRatio="xMidYMid meet" zoomAndPan="magnify" version="1.0" contentStyleType="text/css" xml:xlink="http://www.w3.org/1999/xlink" width="971" height="581"><rect x="10" y="10" width="961" height="571" ry="0" rx="0" style="stroke:#000000; fill:#FFFFFF" /><rect x="40" y="10" width="931" height="571" ry="0" rx="0" style="stroke:#000000; fill:#008080" /><g componentSequence="2"><text x="-295" y="47" transform="rotate(270)" text-anchor="middle" style="font-weight:bold;font-size:10px;stroke:none; fill:#434343" /></g><g componentSequence="1"><text x="-295" y="17" transform="rotate(270)" text-anchor="middle" style="font-weight:bold;font-size:10px;stroke:none; fill:#434343"><tspan dy="14" x="-295">Abertura de Chamados</tspan></text></g><g sequence="4"><ellipse cx="107" cy="257" rx="17" ry="17" stroke-width="1" style="fill:url(#linearGradient66FF6696FF96B6FFB6_102321509);" stroke="336633" /></g><g sequence="9"><rect x="400" y="37" width="106" height="70" ry="5" rx="5" style="fill:url(#linearGradientF8FBFEEDF5FCDEEDFAD4E7F8E2E5E9_148808662);" stroke="191970" /></g><g componentSequence="9"><text x="453" y="52" text-anchor="middle" style="font-weight:bold;font-size:10px;stroke:none; fill:#333399"><tspan dy="14" x="453">E-Mail</tspan><tspan dy="14" x="453">Corporativo</tspan></text></g><g sequence="11"><rect x="400" y="134" width="106" height="70" ry="5" rx="5" style="fill:url(#linearGradientF8FBFEEDF5FCDEEDFAD4E7F8E2E5E9_216081941);" stroke="191970" /></g><g componentSequence="11"><text x="453" y="149" text-anchor="middle" style="font-weight:bold;font-size:10px;stroke:none; fill:#333399"><tspan dy="14" x="453">Criação COD no</tspan><tspan dy="14" x="453">CRM</tspan></text></g><g sequence="13"><rect x="400" y="231" width="106" height="70" ry="5" rx="5" style="fill:url(#linearGradientF8FBFEEDF5FCDEEDFAD4E7F8E2E5E9_1239656941);" stroke="191970" /></g><g componentSequence="13"><text x="453" y="255" text-anchor="middle" style="font-weight:bold;font-size:10px;stroke:none; fill:#333399"><tspan dy="14" x="453">Portal do Cliente</tspan></text></g><g sequence="15"><rect x="400" y="340" width="106" height="70" ry="5" rx="5" style="fill:url(#linearGradientF8FBFEEDF5FCDEEDFAD4E7F8E2E5E9_98416593);" stroke="191970" /></g><g componentSequence="15"><text x="453" y="355" text-anchor="middle" style="font-weight:bold;font-size:10px;stroke:none; fill:#333399"><tspan dy="14" x="453">Usuário CRM e</tspan><tspan dy="14" x="453">EST. Vendas</tspan></text></g><g sequence="21"><ellipse cx="807" cy="257" rx="17" ry="17" stroke-width="3" style="fill:url(#linearGradientFF6666FF9696FFB6B6_2027971759);" stroke="993333" /></g><g sequence="23"><rect x="400" y="450" width="106" height="70" ry="5" rx="5" style="fill:url(#linearGradientF8FBFEEDF5FCDEEDFAD4E7F8E2E5E9_2100569128);" stroke="191970" /></g><g componentSequence="23"><text x="453" y="465" text-anchor="middle" style="font-weight:bold;font-size:10px;stroke:none; fill:#333399"><tspan dy="14" x="453">Cadastro de</tspan><tspan dy="14" x="453">Fornecedor</tspan></text></g><g sequence="26"><polygon points=" 230 250 260 220 290 250 260 280 230 250" style="fill:url(#linearGradientFAFBFCFFFFCC_701257378);" stroke="000000" /></g><path style="fill:none; stroke-width:6; stroke:#000000;" d="M250.0 250.0 L270.0 250.0" /><path style="fill:none; stroke-width:6; stroke:#000000;" d="M260.0 240.0 L260.0 260.0" /><g componentSequence="26"><text x="260" y="283" text-anchor="middle" style="font-weight:bold;font-size:10px;stroke:none; fill:#333399"><tspan dy="14" x="260">Paralelo</tspan></text></g><g sequence="27"><polygon points=" 640 250 670 220 700 250 670 280 640 250" style="fill:url(#linearGradientFAFBFCFFFFCC_1095180149);" stroke="000000" /></g><path style="fill:none; stroke-width:6; stroke:#000000;" d="M660.0 250.0 L680.0 250.0" /><path style="fill:none; stroke-width:6; stroke:#000000;" d="M670.0 240.0 L670.0 260.0" /><g componentSequence="27"><text x="670" y="283" text-anchor="middle" style="font-weight:bold;font-size:10px;stroke:none; fill:#333399"><tspan dy="14" x="670">Join</tspan></text></g><g componentSequence="28"><text x="755" y="260" style="font-size:10px;font-weight:none;stroke:none; fill:#333399" text-anchor="left" /></g><g componentSequence="29"><text x="270" y="76" style="font-size:10px;font-weight:none;stroke:none; fill:#333399" text-anchor="left" /></g><g componentSequence="30"><text x="315" y="169" style="font-size:10px;font-weight:none;stroke:none; fill:#333399" text-anchor="left" /></g><g componentSequence="31"><text x="355" y="265" style="font-size:10px;font-weight:none;stroke:none; fill:#333399" text-anchor="left" /></g><g componentSequence="32"><text x="306" y="375" style="font-size:10px;font-weight:none;stroke:none; fill:#333399" text-anchor="left" /></g><g componentSequence="33"><text x="270" y="466" style="font-size:10px;font-weight:none;stroke:none; fill:#333399" text-anchor="left" /></g><g componentSequence="34"><text x="187" y="260" style="font-size:10px;font-weight:none;stroke:none; fill:#333399" text-anchor="left" /></g><g componentSequence="35"><text x="679" y="478" style="font-size:10px;font-weight:none;stroke:none; fill:#333399" text-anchor="left" /></g><g componentSequence="37"><text x="631" y="375" style="font-size:10px;font-weight:none;stroke:none; fill:#333399" text-anchor="left" /></g><g componentSequence="38"><text x="623" y="169" style="font-size:10px;font-weight:none;stroke:none; fill:#333399" text-anchor="left" /></g><g componentSequence="39"><text x="672" y="72" style="font-size:10px;font-weight:none;stroke:none; fill:#333399" text-anchor="left" /></g><g componentSequence="40"><text x="583" y="265" style="font-size:10px;font-weight:none;stroke:none; fill:#333399" text-anchor="left" /></g><path style="fill:none; stroke:#000000;stroke-width:1" d="M124.0 257.0 L229.0 262.0" /><polygon style="fill:#000000; stroke:#000000;" points=" 219 257 229 262 219 267 221 262" /><path style="fill:none; stroke:#000000;stroke-width:1" d="M506.0 72.0 L670.0 72.0 L670.0 219.0" /><polygon style="fill:#000000; stroke:#000000;" points=" 675 209 670 219 665 209 670 211" /><path style="fill:none; stroke:#000000;stroke-width:1" d="M260.0 219.0 L260.0 72.0 L399.0 72.0" /><polygon style="fill:#000000; stroke:#000000;" points=" 389 67 399 72 389 77 391 72" /><path style="fill:none; stroke:#000000;stroke-width:1" d="M506.0 169.0 L669.0 169.0 L669.0 219.0" /><polygon style="fill:#000000; stroke:#000000;" points=" 674 209 669 219 664 209 669 211" /><path style="fill:none; stroke:#000000;stroke-width:1" d="M260.0 219.0 L260.0 169.0 L399.0 169.0" /><polygon style="fill:#000000; stroke:#000000;" points=" 389 164 399 169 389 174 391 169" /><path style="fill:none; stroke:#000000;stroke-width:1" d="M506.0 265.0 L639.0 264.0" /><polygon style="fill:#000000; stroke:#000000;" points=" 629 259 639 264 629 269 631 264" /><path style="fill:none; stroke:#000000;stroke-width:1" d="M290.0 264.0 L399.0 265.0" /><polygon style="fill:#000000; stroke:#000000;" points=" 389 260 399 265 389 270 391 265" /><path style="fill:none; stroke:#000000;stroke-width:1" d="M506.0 375.0 L669.0 375.0 L669.0 308.0" /><polygon style="fill:#000000; stroke:#000000;" points=" 664 318 669 308 674 318 669 316" /><path style="fill:none; stroke:#000000;stroke-width:1" d="M260.0 308.0 L260.0 375.0 L399.0 375.0" /><polygon style="fill:#000000; stroke:#000000;" points=" 389 370 399 375 389 380 391 375" /><path style="fill:none; stroke:#000000;stroke-width:1" d="M700.0 262.0 L790.0 257.0" /><polygon style="fill:#000000; stroke:#000000;" points=" 780 253 790 257 780 263 782 257" /><path style="fill:none; stroke:#000000;stroke-width:1" d="M506.0 484.0 L669.0 484.0 L669.0 308.0" /><polygon style="fill:#000000; stroke:#000000;" points=" 664 318 669 308 674 318 669 316" /><path style="fill:none; stroke:#000000;stroke-width:1" d="M260.0 308.0 L260.0 484.0 L399.0 484.0" /><polygon style="fill:#000000; stroke:#000000;" points=" 389 479 399 484 389 489 391 484" /><defs><linearGradient xmlns:xlink="http://www.w3.org/1999/xlink" xlink:href="#linearGradient66FF6696FF96B6FFB6" id="linearGradient66FF6696FF96B6FFB6_102321509" x1="0" y1="240.0" x2="0" y2="275.0" gradientUnits="userSpaceOnUse" xlink:type="simple" xlink:actuate="onLoad" xlink:show="other" /><linearGradient id="linearGradient66FF6696FF96B6FFB6"><stop style="stop-color:#66FF66;stop-opacity:1;" offset="0.0" id="stop66FF66" /><stop style="stop-color:#96FF96;stop-opacity:1;" offset="0.5" id="stop96FF96" /><stop style="stop-color:#B6FFB6;stop-opacity:1;" offset="1.0" id="stopB6FFB6" /></linearGradient><linearGradient xmlns:xlink="http://www.w3.org/1999/xlink" xlink:href="#linearGradientF8FBFEEDF5FCDEEDFAD4E7F8E2E5E9" id="linearGradientF8FBFEEDF5FCDEEDFAD4E7F8E2E5E9_148808662" x1="0" y1="37.0" x2="0" y2="143.0" gradientUnits="userSpaceOnUse" xlink:type="simple" xlink:actuate="onLoad" xlink:show="other" /><linearGradient id="linearGradientF8FBFEEDF5FCDEEDFAD4E7F8E2E5E9"><stop style="stop-color:#F8FBFE;stop-opacity:1;" offset="0.0" id="stopF8FBFE" /><stop style="stop-color:#EDF5FC;stop-opacity:1;" offset="0.25" id="stopEDF5FC" /><stop style="stop-color:#DEEDFA;stop-opacity:1;" offset="0.5" id="stopDEEDFA" /><stop style="stop-color:#D4E7F8;stop-opacity:1;" offset="0.75" id="stopD4E7F8" /><stop style="stop-color:#E2E5E9;stop-opacity:1;" offset="1.0" id="stopE2E5E9" /></linearGradient><linearGradient xmlns:xlink="http://www.w3.org/1999/xlink" xlink:href="#linearGradientF8FBFEEDF5FCDEEDFAD4E7F8E2E5E9" id="linearGradientF8FBFEEDF5FCDEEDFAD4E7F8E2E5E9_216081941" x1="0" y1="134.0" x2="0" y2="240.0" gradientUnits="userSpaceOnUse" xlink:type="simple" xlink:actuate="onLoad" xlink:show="other" /><linearGradient xmlns:xlink="http://www.w3.org/1999/xlink" xlink:href="#linearGradientF8FBFEEDF5FCDEEDFAD4E7F8E2E5E9" id="linearGradientF8FBFEEDF5FCDEEDFAD4E7F8E2E5E9_1239656941" x1="0" y1="231.0" x2="0" y2="337.0" gradientUnits="userSpaceOnUse" xlink:type="simple" xlink:actuate="onLoad" xlink:show="other" /><linearGradient xmlns:xlink="http://www.w3.org/1999/xlink" xlink:href="#linearGradientF8FBFEEDF5FCDEEDFAD4E7F8E2E5E9" id="linearGradientF8FBFEEDF5FCDEEDFAD4E7F8E2E5E9_98416593" x1="0" y1="340.0" x2="0" y2="446.0" gradientUnits="userSpaceOnUse" xlink:type="simple" xlink:actuate="onLoad" xlink:show="other" /><linearGradient xmlns:xlink="http://www.w3.org/1999/xlink" xlink:href="#linearGradientFF6666FF9696FFB6B6" id="linearGradientFF6666FF9696FFB6B6_2027971759" x1="0" y1="240.0" x2="0" y2="275.0" gradientUnits="userSpaceOnUse" xlink:type="simple" xlink:actuate="onLoad" xlink:show="other" /><linearGradient id="linearGradientFF6666FF9696FFB6B6"><stop style="stop-color:#FF6666;stop-opacity:1;" offset="0.0" id="stopFF6666" /><stop style="stop-color:#FF9696;stop-opacity:1;" offset="0.5" id="stopFF9696" /><stop style="stop-color:#FFB6B6;stop-opacity:1;" offset="1.0" id="stopFFB6B6" /></linearGradient><linearGradient xmlns:xlink="http://www.w3.org/1999/xlink" xlink:href="#linearGradientF8FBFEEDF5FCDEEDFAD4E7F8E2E5E9" id="linearGradientF8FBFEEDF5FCDEEDFAD4E7F8E2E5E9_2100569128" x1="0" y1="450.0" x2="0" y2="556.0" gradientUnits="userSpaceOnUse" xlink:type="simple" xlink:actuate="onLoad" xlink:show="other" /><linearGradient xmlns:xlink="http://www.w3.org/1999/xlink" xlink:href="#linearGradientFAFBFCFFFFCC" id="linearGradientFAFBFCFFFFCC_701257378" x1="0" y1="220.0" x2="0" y2="280.0" gradientUnits="userSpaceOnUse" xlink:type="simple" xlink:actuate="onLoad" xlink:show="other" /><linearGradient id="linearGradientFAFBFCFFFFCC"><stop style="stop-color:#FAFBFC;stop-opacity:1;" offset="0.0" id="stopFAFBFC" /><stop style="stop-color:#FFFFCC;stop-opacity:1;" offset="1.0" id="stopFFFFCC" /></linearGradient><linearGradient xmlns:xlink="http://www.w3.org/1999/xlink" xlink:href="#linearGradientFAFBFCFFFFCC" id="linearGradientFAFBFCFFFFCC_1095180149" x1="0" y1="220.0" x2="0" y2="280.0" gradientUnits="userSpaceOnUse" xlink:type="simple" xlink:actuate="onLoad" xlink:show="other" /></defs></svg>
